<?xml version="1.0" encoding="UTF-8"?>
<svg version="1.1" xmlns="http://www.w3.org/2000/svg" width="1024" height="1024">
<path d="M0 0 C337.92 0 675.84 0 1024 0 C1024 337.92 1024 675.84 1024 1024 C686.08 1024 348.16 1024 0 1024 C0 686.08 0 348.16 0 0 Z " fill="#7F22FE" transform="translate(0,0)"/>
<path d="M0 0 C1.40668945 -0.0309375 1.40668945 -0.0309375 2.84179688 -0.0625 C8.23689722 -0.09291635 12.01437933 0.2311488 16.6875 3.25 C18.23780118 4.80030118 17.93155099 6.28676001 18 8.4375 C17.9173244 13.20262088 16.833022 15.55401165 13.6875 19.25 C13.18605469 19.84167969 12.68460938 20.43335938 12.16796875 21.04296875 C1.4701723 32.71964854 -13.98345674 40.13418969 -27.515625 47.953125 C-28.94938477 48.80874023 -28.94938477 48.80874023 -30.41210938 49.68164062 C-33.3125 51.25 -33.3125 51.25 -36.35351562 52.30273438 C-39.74643857 53.59281058 -41.76893948 54.63453671 -44.3125 57.25 C-46.54717078 62.68404612 -47.03482699 68.70384398 -47.85760498 74.47821045 C-48.59596066 78.97719693 -49.79164948 83.33181427 -51.00390625 87.72265625 C-51.35550308 89.0284816 -51.35550308 89.0284816 -51.71420288 90.36068726 C-52.667618 93.90036476 -53.63402464 97.43637956 -54.60620117 100.97094727 C-58.56553115 115.42031019 -62.15292567 129.95705264 -62.625 145 C-62.95895176 149.85933885 -64.22472436 152.6086025 -67.6796875 156.046875 C-69.8287107 157.63036578 -71.65320011 158.1717853 -74.3125 158.25 C-77.54293643 153.75327354 -78.27912291 149.39371846 -79.1796875 144.05859375 C-79.34115265 143.15867203 -79.5026178 142.25875031 -79.66897583 141.33155823 C-80.18476171 138.45181325 -80.68731073 135.5699917 -81.1875 132.6875 C-83.5736101 119.02684302 -86.31997706 105.59525104 -89.82769775 92.17605591 C-90.40517966 89.88179583 -90.88623249 87.57692942 -91.3125 85.25 C-95.59541606 87.790621 -99.87803247 90.33174619 -104.16040039 92.87329102 C-105.60986723 93.73344756 -107.05940858 94.59347855 -108.5090332 95.45336914 C-120.07463815 102.31404906 -131.61816746 109.2103311 -143.1328125 116.15625 C-154.18787594 122.82191454 -165.30891588 129.37184436 -176.45166016 135.8894043 C-183.01625413 139.72946954 -189.57298368 143.58176798 -196.11401367 147.46191406 C-204.33756488 152.33964877 -212.58523341 157.173043 -220.875 161.9375 C-221.75027344 162.44321533 -222.62554687 162.94893066 -223.52734375 163.4699707 C-224.34460938 163.93749756 -225.161875 164.40502441 -226.00390625 164.88671875 C-226.71748291 165.29623779 -227.43105957 165.70575684 -228.16625977 166.12768555 C-233.61411026 168.9764819 -238.19482735 170.13474278 -244.3125 169.25 C-249.43012818 166.59641502 -252.48955942 163.71882174 -254.3125 158.25 C-254.67246433 153.85843521 -254.73653373 151.23941203 -253 147.1875 C-245.69989677 139.2083174 -234.51180925 134.36728324 -225.1875 128.9375 C-223.89488118 128.1825285 -222.602402 127.42731785 -221.31005859 126.671875 C-218.7807908 125.19361042 -216.25101319 123.7162259 -213.72070312 122.23974609 C-209.45572172 119.74980351 -205.19467474 117.25326348 -200.9375 114.75 C-200.26928223 114.3571582 -199.60106445 113.96431641 -198.91259766 113.55957031 C-194.7811305 111.126377 -190.66859079 108.66336939 -186.5625 106.1875 C-179.16299484 101.7270746 -171.70600867 97.36498586 -164.25 93 C-151.9192566 85.78068821 -139.6007827 78.5414503 -127.3125 71.25 C-126.16297852 70.5688916 -126.16297852 70.5688916 -124.99023438 69.87402344 C-122.88768476 68.62707676 -120.7871663 67.37679412 -118.6875 66.125 C-117.7905542 65.59326172 -117.7905542 65.59326172 -116.87548828 65.05078125 C-113.89047009 63.26449873 -111.04905552 61.39919726 -108.3125 59.25 C-121.73625751 45.40455378 -136.49996179 33.6328978 -152.625 23.0625 C-167.96568695 12.95300806 -167.96568695 12.95300806 -170.3125 7.25 C-168.9925 7.25 -167.6725 7.25 -166.3125 7.25 C-165.6525 5.93 -164.9925 4.61 -164.3125 3.25 C-157.97309861 2.44452312 -153.28646245 3.46078461 -147.44140625 6.015625 C-139.56702961 9.32402313 -131.610897 11.42774444 -123.3125 13.375 C-120.62419671 14.02011483 -117.93718616 14.67056191 -115.25 15.3203125 C-114.59135452 15.47890244 -113.93270905 15.63749237 -113.25410461 15.80088806 C-101.6640975 18.60101071 -90.29394142 21.73944505 -79.09960938 25.86914062 C-71.81778575 28.41917388 -63.98021146 30.87711223 -56.43188477 28.24584961 C-53.48869223 26.76346358 -50.7253388 25.13165822 -47.9375 23.375 C-46.94089355 22.77872803 -45.94428711 22.18245605 -44.91748047 21.56811523 C-42.02797334 19.82724224 -39.1672384 18.04717815 -36.3125 16.25 C-35.19101562 15.55366455 -35.19101562 15.55366455 -34.046875 14.84326172 C-29.15229599 11.79956397 -24.35208439 8.6262103 -19.57421875 5.40234375 C-18.76597656 4.85707031 -17.95773437 4.31179688 -17.125 3.75 C-16.45082031 3.2859375 -15.77664063 2.821875 -15.08203125 2.34375 C-10.40282469 -0.54847481 -5.30585876 0.02881661 0 0 Z " fill="#FDFBFD" transform="translate(571.3125,461.75)"/>
<path d="M0 0 C4.23168996 2.32328076 6.64646149 4.12688448 8.1875 8.75 C8.73355459 14.4289677 7.66823173 18.27814465 4.1875 22.75 C-1.91127194 28.64491326 -9.06508426 32.62371804 -16.375 36.8125 C-17.68194005 37.56878193 -18.98841232 38.32587277 -20.29443359 39.08374023 C-22.91329304 40.60285583 -25.53384191 42.11898562 -28.15576172 43.6328125 C-33.10278611 46.49261284 -38.02187234 49.39914309 -42.9375 52.3125 C-43.80890625 52.8278833 -44.6803125 53.3432666 -45.578125 53.87426758 C-50.43862784 56.74932597 -55.29593239 59.62975562 -60.15234375 62.51171875 C-62.39317746 63.84123298 -64.63406386 65.17065843 -66.875 66.5 C-67.99801514 67.16620361 -69.12103027 67.83240723 -70.27807617 68.51879883 C-79.36781173 73.9073392 -88.48405255 79.24998669 -97.60519409 84.58514404 C-105.24307067 89.05392705 -112.85759188 93.5583542 -120.4375 98.125 C-122.00904585 99.06521906 -123.58065911 100.00532545 -125.15234375 100.9453125 C-128.43423288 102.91069048 -131.6908222 104.91301363 -134.94140625 106.9296875 C-136.62723136 107.95373897 -138.3134172 108.97719689 -140 110 C-140.7542627 110.47872559 -141.50852539 110.95745117 -142.28564453 111.45068359 C-147.47697789 114.56086395 -151.76478421 115.68613829 -157.8125 114.75 C-163.12463076 112.90652083 -166.1917332 109.77598522 -168.9296875 104.8984375 C-170.46182608 101.16978166 -170.39645739 98.77281756 -169.8125 94.75 C-166.46979325 88.31219441 -161.3407776 84.90667008 -155.1640625 81.39453125 C-154.08415039 80.77690918 -153.00423828 80.15928711 -151.89160156 79.52294922 C-150.75174805 78.87600098 -149.61189453 78.22905273 -148.4375 77.5625 C-146.06907219 76.20919405 -143.70249577 74.85266571 -141.3359375 73.49609375 C-140.20124023 72.84624512 -139.06654297 72.19639648 -137.89746094 71.52685547 C-134.26119265 69.43246163 -130.65204794 67.29826372 -127.0625 65.125 C-121.14659344 61.54630448 -115.20429509 58.01450149 -109.25 54.5 C-107.84766113 53.67218018 -107.84766113 53.67218018 -106.41699219 52.82763672 C-104.50317081 51.69810941 -102.58927039 50.56871601 -100.67529297 49.43945312 C-96.05312893 46.711722 -91.4328643 43.98077812 -86.8125 41.25 C-81.23146427 37.95143538 -75.64994117 34.65370788 -70.06640625 31.359375 C-62.03034309 26.61674662 -53.99535985 21.87351402 -46 17.0625 C-44.23226366 16.00107612 -42.46418233 14.94023141 -40.69580078 13.87988281 C-39.3550548 13.07550475 -38.01495389 12.27005107 -36.67529297 11.46386719 C-34.43245315 10.1165023 -32.18540699 8.77639036 -29.9375 7.4375 C-29.25969482 7.02862549 -28.58188965 6.61975098 -27.88354492 6.19848633 C-18.99838455 0.92810627 -10.37838873 -4.00530567 0 0 Z " fill="#FDFAFD" transform="translate(495.8125,286.25)"/>
<path d="M0 0 C3.50864059 2.53082272 6.06806119 4.68568836 7.64453125 8.796875 C7.91015625 11.015625 7.91015625 11.015625 7.89453125 13.296875 C7.90226562 14.42609375 7.90226562 14.42609375 7.91015625 15.578125 C7.59542307 18.20707274 7.08612429 19.56008232 5.64453125 21.796875 C3.07275391 23.62109375 3.07275391 23.62109375 -0.19140625 25.484375 C-0.77798508 25.8234639 -1.3645639 26.1625528 -1.96891785 26.51191711 C-3.88408755 27.61651472 -5.80719776 28.70645554 -7.73046875 29.796875 C-9.06051603 30.56152509 -10.38985789 31.32740347 -11.71850586 32.09448242 C-14.3710758 33.62553218 -17.02584894 35.15264353 -19.68212891 36.67724609 C-24.46335619 39.42830208 -29.19607131 42.25790844 -33.91796875 45.109375 C-34.70671387 45.58439453 -35.49545898 46.05941406 -36.30810547 46.54882812 C-37.8725475 47.49117742 -39.4366799 48.43404096 -41.00048828 49.37744141 C-45.11479355 51.85728495 -49.2355557 54.32636352 -53.35546875 56.796875 C-55.02867452 57.80073344 -56.70185168 58.80463957 -58.375 59.80859375 C-61.64322917 61.76953125 -64.91145833 63.73046875 -68.1796875 65.69140625 C-68.97874512 66.17085693 -69.77780273 66.65030762 -70.60107422 67.14428711 C-72.23675903 68.12566529 -73.87250177 69.10694694 -75.50830078 70.08813477 C-80.13972605 72.86636248 -84.76981221 75.64679707 -89.3984375 78.4296875 C-100.48382961 85.09193332 -111.5859654 91.72335556 -122.72753906 98.29125977 C-127.99216752 101.39580517 -133.24420011 104.51974767 -138.48046875 107.671875 C-143.01257012 110.39656792 -147.54999587 113.11142917 -152.10546875 115.796875 C-153.0490625 116.35375 -153.99265625 116.910625 -154.96484375 117.484375 C-159.35120645 119.89257413 -163.43020615 120.32803077 -168.35546875 119.796875 C-172.4962933 118.00879167 -174.78736188 115.4655991 -177.35546875 111.796875 C-178.5794465 108.12494176 -179.08143106 104.59985186 -178.35546875 100.796875 C-175.67598261 95.82529832 -172.85485828 93.48922661 -167.98046875 90.734375 C-166.62616498 89.95466517 -165.27200717 89.17470179 -163.91796875 88.39453125 C-163.18449219 87.9783252 -162.45101563 87.56211914 -161.6953125 87.13330078 C-157.4278692 84.69590673 -153.20845803 82.17686043 -148.98046875 79.671875 C-148.04783203 79.12152588 -147.11519531 78.57117676 -146.15429688 78.00415039 C-139.24367511 73.92532037 -132.35760498 69.80686546 -125.48046875 65.671875 C-115.93526404 59.93414058 -106.37080419 54.22991991 -96.79296875 48.546875 C-96.12711761 48.15177734 -95.46126648 47.75667969 -94.77523804 47.34960938 C-91.36472061 45.32609431 -87.95392643 43.30304628 -84.54296875 41.28027344 C-78.14256956 37.48467915 -71.74314656 33.68744081 -65.3442688 29.88928223 C-63.3715484 28.71851051 -61.3985565 27.54819744 -59.42553711 26.37792969 C-40.95610641 15.44789674 -40.95610641 15.44789674 -22.75 4.08789062 C-15.79721161 -0.31554202 -8.04886398 -4.1111942 0 0 Z " fill="#FCFAFD" transform="translate(464.35546875,376.203125)"/>
<path d="M0 0 C4.11167054 2.89685879 7.95382569 5.96172794 9.30078125 10.99609375 C9.53634989 14.55654548 8.9693202 16.63776239 6.875 19.5 C-2.75703672 27.01298864 -13.11903692 33.14922951 -23.61083984 39.37011719 C-27.72845923 41.81554887 -31.83254883 44.28338487 -35.9375 46.75 C-37.60020371 47.74749037 -39.26296553 48.74488387 -40.92578125 49.7421875 C-44.71605891 52.01621152 -48.5048192 54.2927453 -52.29296875 56.5703125 C-65.01347112 64.21545294 -77.76223282 71.80984935 -90.54833984 79.34472656 C-94.19891755 81.49693775 -97.84721307 83.65300017 -101.49536133 85.80932617 C-103.32448357 86.89045852 -105.15374679 87.97135239 -106.9831543 89.05200195 C-111.6677318 91.81926822 -116.3507357 94.58914736 -121.03125 97.36328125 C-125.6227532 100.08391241 -130.21791719 102.79822237 -134.81738281 105.50537109 C-136.35925335 106.41310018 -137.90036399 107.32212231 -139.44042969 108.23291016 C-157.7176313 119.02343783 -157.7176313 119.02343783 -166.25 117.9375 C-171.18123725 116.18971971 -174.27497619 113.48673655 -176.58984375 108.796875 C-177.71309894 105.63315033 -177.73094718 103.24401183 -177.25 99.9375 C-174.22365086 94.13634243 -170.31722747 91.73283506 -164.8125 88.625 C-163.52629761 87.87609497 -163.52629761 87.87609497 -162.21411133 87.11206055 C-160.29793008 85.99729838 -158.3783714 84.8883281 -156.45605469 83.78417969 C-152.96283176 81.77209179 -149.48376507 79.73703195 -146.0078125 77.6953125 C-145.38788925 77.33124298 -144.767966 76.96717346 -144.1292572 76.59207153 C-142.86637151 75.85038016 -141.60350845 75.10865026 -140.34066772 74.36688232 C-138.43807256 73.25033601 -136.53432193 72.13578811 -134.63012695 71.02197266 C-127.27224236 66.71791492 -119.9389152 62.37708952 -112.640625 57.97265625 C-108.691675 55.60237636 -104.72256917 53.26789676 -100.75 50.9375 C-91.77091783 45.66844727 -82.84759227 40.30922617 -73.9296875 34.9375 C-64.53758647 29.28649312 -55.12083059 23.67643582 -45.6730957 18.11889648 C-40.06334253 14.81543842 -34.48291582 11.47776346 -28.96875 8.015625 C-27.99043213 7.41073242 -27.01211426 6.80583984 -26.00415039 6.18261719 C-24.18479382 5.05539514 -22.37574796 3.91127857 -20.57983398 2.74707031 C-13.71764442 -1.46484328 -7.74829125 -2.53309522 0 0 Z " fill="#FCFAFD" transform="translate(661.25,336.0625)"/>
<path d="M0 0 C6.0719412 0.4790897 10.49734865 2.14041099 15.21484375 6.0546875 C18.06699835 10.33291939 17.81259174 14.03675042 17.21484375 19.0546875 C13.45199867 27.77764656 2.9529849 32.30543393 -4.93847656 36.74194336 C-19.66491154 45.02218452 -34.00279549 54.00031654 -48.43798828 62.77514648 C-55.20783338 66.88939647 -61.98715785 70.98707334 -68.78515625 75.0546875 C-76.74089934 79.81639849 -84.67291771 84.61662802 -92.59765625 89.4296875 C-93.19273987 89.79101776 -93.78782349 90.15234802 -94.40093994 90.52462769 C-100.67094549 94.33213861 -106.9373016 98.14545101 -113.1953125 101.97265625 C-145.53568553 121.74214339 -145.53568553 121.74214339 -153.78515625 121.0546875 C-158.47034981 119.25494717 -162.45034736 116.53752056 -164.78515625 112.0546875 C-165.38826594 107.95809336 -165.65435984 104.11457009 -164.78515625 100.0546875 C-161.25155296 95.59545581 -156.78815888 93.05112131 -151.91015625 90.3046875 C-150.3837475 89.42641893 -148.85771272 88.5475001 -147.33203125 87.66796875 C-146.56826172 87.23049316 -145.80449219 86.79301758 -145.01757812 86.34228516 C-141.70711952 84.43290647 -138.43236087 82.46618758 -135.16015625 80.4921875 C-133.91149909 79.74081768 -132.66280138 78.98951525 -131.4140625 78.23828125 C-130.50164795 77.68889893 -130.50164795 77.68889893 -129.57080078 77.12841797 C-127.8820867 76.11297299 -126.19111051 75.10129272 -124.5 74.08984375 C-118.52955058 70.51854163 -112.57190062 66.92798956 -106.6328125 63.3046875 C-94.57489785 55.95240575 -82.48572083 48.66821607 -70.28515625 41.5546875 C-59.48203083 35.2551956 -48.75899946 28.83628508 -38.08276367 22.32421875 C-32.23639875 18.7583058 -26.38372933 15.20450604 -20.5078125 11.6875 C-19.92174225 11.33666351 -19.335672 10.98582703 -18.73184204 10.62435913 C-15.93489731 8.95088934 -13.13654936 7.27980482 -10.33691406 5.61083984 C-8.86689941 4.73226318 -8.86689941 4.73226318 -7.3671875 3.8359375 C-6.50327393 3.32095703 -5.63936035 2.80597656 -4.74926758 2.27539062 C-1.14458167 0.03506377 -1.14458167 0.03506377 0 0 Z " fill="#FCFAFD" transform="translate(719.78515625,448.9453125)"/>
<path d="M0 0 C4.01003282 1.92243902 6.41503002 4.15085002 8.9375 7.8125 C10.63024233 12.89072698 10.55447908 16.91004039 9.1875 22.0625 C5.71017434 26.73205161 0.97995128 29.10104286 -4 32 C-6.16689863 33.31211701 -8.33354607 34.62464888 -10.5 35.9375 C-15.31550158 38.82248837 -20.14750248 41.67955324 -24.98046875 44.53515625 C-39.60707493 53.17958378 -54.17018901 61.91947839 -68.67921448 70.75976562 C-72.90195636 73.33254552 -77.12781065 75.90015101 -81.35546875 78.46484375 C-81.96064835 78.832005 -82.56582794 79.19916626 -83.18934631 79.57745361 C-85.59600919 81.03752086 -88.00271427 82.49751851 -90.40945435 83.9574585 C-96.82872125 87.8519849 -103.24117601 91.75707065 -109.63793945 95.68847656 C-136.04141775 111.90573901 -136.04141775 111.90573901 -145 111 C-150.20721124 109.35104977 -152.96822303 107.54766546 -156 103 C-157.58324757 99.83350487 -157.64374236 96.42541806 -157 93 C-154.01270252 87.0571848 -149.77570353 84.64522569 -144.1875 81.5 C-142.3769861 80.44767725 -140.56711523 79.39424755 -138.7578125 78.33984375 C-137.81325195 77.79440918 -136.86869141 77.24897461 -135.89550781 76.68701172 C-131.0768756 73.8795287 -126.32118986 70.97005063 -121.5625 68.0625 C-120.59489746 67.47315674 -119.62729492 66.88381348 -118.63037109 66.27661133 C-112.33993912 62.44201856 -106.07106177 58.57383569 -99.8125 54.6875 C-82.5119531 43.9472833 -65.07932913 33.41897128 -47.60351562 22.96679688 C-43.19186193 20.32568196 -38.80447578 17.65181076 -34.4375 14.9375 C-32.89698043 13.99485348 -31.35638292 13.05232982 -29.81396484 12.11279297 C-28.45609995 11.27979859 -27.10302978 10.43897952 -25.75244141 9.59423828 C-23.26325589 8.0430211 -20.75823705 6.52018043 -18.25 5 C-17.46939209 4.5062085 -16.68878418 4.01241699 -15.88452148 3.50366211 C-10.62973978 0.36258533 -6.14708189 -1.1652884 0 0 Z " fill="#FCFAFD" transform="translate(680,622)"/>
<path d="M0 0 C4.45531067 2.11041032 7.15810959 4.39527396 9 9 C9.81388161 12.9337611 9.94741812 16.38985691 7.86254883 19.93310547 C2.55156106 26.17280389 -3.85365632 29.8579589 -10.9375 33.8125 C-12.21746814 34.54236276 -13.49641784 35.27401409 -14.77441406 36.00732422 C-16.78207025 37.15891216 -18.79034387 38.30926283 -20.80178833 39.45422363 C-27.66047164 43.35894927 -34.44776627 47.38040899 -41.2276001 51.42007446 C-43.24968732 52.62481371 -45.27289339 53.82765351 -47.29638672 55.0300293 C-61.02010921 63.18759547 -74.7145102 71.39443838 -88.3828125 79.64453125 C-90.79640805 81.10122377 -93.21389389 82.55090124 -95.63671875 83.9921875 C-98.02612093 85.41861342 -100.40033909 86.86132189 -102.76953125 88.3203125 C-104.01260579 89.06839844 -105.25608167 89.81581796 -106.5 90.5625 C-107.5828125 91.22378906 -108.665625 91.88507813 -109.78125 92.56640625 C-113.56093509 94.24983396 -115.9047384 94.55074208 -120 94 C-122.6171875 92.3203125 -122.6171875 92.3203125 -124.875 90.125 C-125.63554688 89.40570312 -126.39609375 88.68640625 -127.1796875 87.9453125 C-130.13031696 84.7920647 -130.28858644 82.49941264 -130.5 78.25 C-130.5721875 77.22390625 -130.644375 76.1978125 -130.71875 75.140625 C-129.41638573 69.44985938 -124.74957691 67.10035181 -120.07617188 64.16113281 C-117.19873376 62.43756955 -114.30718368 60.7484484 -111.39547729 59.08398438 C-108.13108875 57.21714789 -104.88112324 55.32543283 -101.62890625 53.4375 C-100.97527603 53.05891846 -100.32164581 52.68033691 -99.64820862 52.2902832 C-93.8647668 48.93589872 -88.13981153 45.49054597 -82.4375 42 C-81.52830811 41.44393066 -80.61911621 40.88786133 -79.68237305 40.31494141 C-77.79738813 39.16129842 -75.91270964 38.00715463 -74.02832031 36.85253906 C-63.70463116 30.53714457 -53.35088372 24.27069185 -43 18 C-42.00645508 17.39784668 -41.01291016 16.79569336 -39.98925781 16.17529297 C-35.00041747 13.15491487 -29.99981427 10.15656161 -24.97998047 7.18798828 C-23.22025178 6.13215107 -21.48507877 5.03562776 -19.75390625 3.93359375 C-13.23229104 -0.05337952 -7.6247065 -1.30422611 0 0 Z " fill="#FCFAFD" transform="translate(730,523)"/>
<path d="M0 0 C3.5729696 2.57435377 6.18779503 4.6258995 7.83984375 8.80078125 C8.37829558 13.55710574 7.8319545 16.84019256 5.35253906 20.96508789 C2.20624305 24.7831963 -2.22671921 26.94556334 -6.47265625 29.36328125 C-8.54975295 30.58547232 -10.6265677 31.80814268 -12.703125 33.03125 C-13.76966309 33.65177246 -14.83620117 34.27229492 -15.93505859 34.91162109 C-21.09260264 37.9327472 -26.18654807 41.05658802 -31.28515625 44.17578125 C-33.20553645 45.34536856 -35.12610227 46.51465119 -37.046875 47.68359375 C-44.91798651 52.47994034 -52.77364191 57.29925295 -60.58032227 62.19995117 C-64.10193388 64.40827038 -67.63069496 66.60503673 -71.16015625 68.80078125 C-72.09375977 69.3829541 -73.02736328 69.96512695 -73.98925781 70.56494141 C-77.04148213 72.46382926 -80.10012682 74.35200177 -83.16015625 76.23828125 C-84.61107666 77.14344482 -84.61107666 77.14344482 -86.09130859 78.06689453 C-93.8351893 82.81946154 -100.83805298 86.85327678 -110.16015625 85.80078125 C-114.9140313 83.37723711 -118.27939658 80.2913772 -121.16015625 75.80078125 C-121.85060839 72.64920134 -122.0784463 69.90676229 -121.16015625 66.80078125 C-116.92537609 61.38817476 -110.82940064 58.40025641 -104.97265625 54.98828125 C-102.71662871 53.65503107 -100.461447 52.32034878 -98.20703125 50.984375 C-97.33813011 50.47090012 -97.33813011 50.47090012 -96.45167542 49.947052 C-90.16154734 46.22454829 -83.94059675 42.39261137 -77.72265625 38.55078125 C-75.53910815 37.20305104 -73.35551551 35.85539299 -71.171875 34.5078125 C-70.14368652 33.87311035 -69.11549805 33.2384082 -68.05615234 32.58447266 C-63.36227336 29.69343575 -58.65199192 26.82943941 -53.94165039 23.96533203 C-49.62989522 21.33494917 -45.3457185 18.66406766 -41.07421875 15.96875 C-40.01219238 15.29980713 -38.95016602 14.63086426 -37.85595703 13.94165039 C-35.78663092 12.63634667 -33.71973211 11.32718363 -31.65576172 10.01342773 C-8.38967284 -4.65755798 -8.38967284 -4.65755798 0 0 Z " fill="#FCFAFD" transform="translate(538.16015625,636.19921875)"/>
<path d="M0 0 C3.94596748 2.08466207 6.65937553 4.20913271 9 8 C9.3984375 10.5859375 9.3984375 10.5859375 9.375 13.375 C9.38660156 14.74785156 9.38660156 14.74785156 9.3984375 16.1484375 C8.70695317 21.09729594 7.17701903 24.07662028 3.2265625 27.17578125 C2.03583824 27.90428055 0.83425301 28.61518898 -0.375 29.3125 C-1.055625 29.72145508 -1.73625 30.13041016 -2.4375 30.55175781 C-4.94833212 32.05200158 -7.47389147 33.52562619 -10 35 C-11.63639283 35.96532713 -13.27276192 36.93069492 -14.90858459 37.89698792 C-22.31760771 42.27199974 -29.74799107 46.61004047 -37.18280029 50.94104004 C-40.05126015 52.61261423 -42.91815249 54.28686706 -45.78515625 55.9609375 C-50.6014205 58.77261818 -55.41796542 61.5838037 -60.23876953 64.38769531 C-62.24325865 65.55813264 -64.24371895 66.73547833 -66.24169922 67.91699219 C-67.85262451 68.86687012 -67.85262451 68.86687012 -69.49609375 69.8359375 C-70.47634521 70.41649902 -71.45659668 70.99706055 -72.46655273 71.59521484 C-75.89847962 73.49820293 -78.62617777 74.17252356 -82.5 74.25 C-83.2734375 74.27578125 -84.046875 74.3015625 -84.84375 74.328125 C-87 74 -87 74 -88.64453125 72.9765625 C-90.70967632 69.96514058 -91.37567835 66.6313114 -92.1875 63.125 C-92.36474609 62.41730469 -92.54199219 61.70960938 -92.72460938 60.98046875 C-94.62347186 53.10642121 -94.62347186 53.10642121 -94 50 C-91.82421875 48.1484375 -91.82421875 48.1484375 -88.6875 46.375 C-88.10991943 46.04072998 -87.53233887 45.70645996 -86.93725586 45.36206055 C-85.65577988 44.62286994 -84.36942682 43.89208966 -83.07910156 43.16845703 C-80.93454791 41.96321586 -78.80593135 40.73332732 -76.6796875 39.49609375 C-73.50259273 37.64811152 -70.32125205 35.80778991 -67.13671875 33.97265625 C-61.86504228 30.92839182 -56.61629616 27.84622972 -51.375 24.75 C-50.47523438 24.21882568 -49.57546875 23.68765137 -48.6484375 23.14038086 C-43.51372723 20.10177383 -38.39665941 17.03575479 -33.29296875 13.9453125 C-32.17164551 13.26758789 -31.05032227 12.58986328 -29.89501953 11.89160156 C-27.72299422 10.57724779 -25.55327631 9.25907102 -23.38623047 7.93652344 C-8.67418492 -0.96379832 -8.67418492 -0.96379832 0 0 Z " fill="#FCFAFD" transform="translate(383,499)"/>
<path d="M0 0 C3.88905804 2.23413972 6.25580563 4.86901333 8 9 C8.71508988 13.70912847 8.49049355 17.03717934 6.3125 21.3125 C1.46119135 26.95050734 -4.7542443 30.39985993 -11.0625 34.1875 C-12.55281738 35.08867554 -12.55281738 35.08867554 -14.07324219 36.00805664 C-16.22980603 37.31207577 -18.38723104 38.61467154 -20.54541016 39.91601562 C-26.01317027 43.21298052 -31.47271468 46.52349843 -36.93161011 49.83511353 C-38.70111859 50.90786598 -40.47169572 51.97883573 -42.24243164 53.04956055 C-48.4784337 56.82842134 -54.65939154 60.67031893 -60.76660156 64.65454102 C-64.9962222 67.20257767 -69.16399355 67.6423538 -74 67 C-79.12171329 64.53763784 -82.03094683 61.25449582 -84 56 C-84.81010111 50.32929226 -83.30847462 46.5416095 -80 42 C-77.3203125 39.8046875 -77.3203125 39.8046875 -74.125 37.875 C-73.52768066 37.50866455 -72.93036133 37.1423291 -72.31494141 36.76489258 C-70.2212485 35.49011851 -68.11202051 34.24416048 -66 33 C-64.2967489 31.98588885 -62.59363083 30.97155424 -60.890625 29.95703125 C-57.16585499 27.74541774 -53.43472722 25.54498547 -49.69921875 23.3515625 C-44.18194171 20.11076317 -38.67930522 16.84626517 -33.1875 13.5625 C-32.39456543 13.09094482 -31.60163086 12.61938965 -30.78466797 12.13354492 C-26.12224148 9.3419183 -21.59437308 6.4177785 -17.1340332 3.31225586 C-11.58093032 -0.10244818 -6.41171744 -0.85559986 0 0 Z " fill="#FCF9FD" transform="translate(443,615)"/>
<path d="M0 0 C4.03774659 2.01887329 6.64129397 4.17380357 9 8 C9.86821156 13.25991503 10.13344267 18.299836 7.125 22.8125 C6.09375 23.534375 5.0625 24.25625 4 25 C3.34128906 25.50402344 2.68257812 26.00804687 2.00390625 26.52734375 C-3.67796167 30.75281382 -9.74290278 34.18711383 -15.92553711 37.60595703 C-19.9765549 39.84862758 -23.95084737 42.16372876 -27.875 44.625 C-34.67815667 48.8672726 -41.61809511 52.86995299 -48.5625 56.875 C-49.43730011 57.38030243 -49.43730011 57.38030243 -50.32977295 57.89581299 C-65.27711993 66.52500852 -65.27711993 66.52500852 -71.81640625 65.6015625 C-76.37194693 64.34654771 -78.33418362 61.01020416 -80.8125 57.25 C-82.30863472 53.1553155 -82.94969432 49.29979713 -82 45 C-78.94296201 39.9527029 -74.63353335 37.82750811 -69.5625 35.1875 C-61.83926996 31.09793061 -54.41765379 26.61991235 -47 22 C-44.79891663 20.64202973 -42.59709761 19.2852511 -40.39453125 17.9296875 C-39.30849609 17.26066406 -38.22246094 16.59164063 -37.10351562 15.90234375 C-36.01748047 15.23332031 -34.93144531 14.56429688 -33.8125 13.875 C-32.71486328 13.19824219 -31.61722656 12.52148438 -30.48632812 11.82421875 C-28.33672654 10.50040217 -26.18494256 9.18012139 -24.03076172 7.86376953 C-22.06897268 6.65736567 -20.11668775 5.43530946 -18.17626953 4.19482422 C-16.88052002 3.37908936 -16.88052002 3.37908936 -15.55859375 2.546875 C-14.81279053 2.06831055 -14.0669873 1.58974609 -13.29858398 1.09667969 C-8.99556489 -0.95633802 -4.61734442 -0.85667711 0 0 Z " fill="#FCFAFD" transform="translate(600,299)"/>
<path d="M0 0 C3.86575499 2.04851974 6.3168404 4.19189167 7.828125 8.28125 C8.60465891 13.49013477 8.79499524 16.87160741 5.73828125 21.328125 C2.86771458 24.50296161 -0.5059245 26.55694503 -4.234375 28.59375 C-5.73196919 29.44267099 -7.22793564 30.29446707 -8.72265625 31.1484375 C-9.56650879 31.62893555 -10.41036133 32.10943359 -11.27978516 32.60449219 C-17.21743359 36.04698496 -23.06200742 39.64603787 -28.921875 43.21875 C-30.75843504 44.3367458 -32.59523366 45.4543487 -34.43208313 46.5718689 C-36.05630971 47.56027607 -37.68002711 48.54951984 -39.30371094 49.53881836 C-40.25020508 50.1138208 -41.19669922 50.68882324 -42.171875 51.28125 C-43.07083496 51.84134766 -43.96979492 52.40144531 -44.89599609 52.97851562 C-48.86399529 55.24983548 -52.75290397 55.12230221 -57.171875 54.28125 C-61.48237751 52.01763416 -63.74401682 49.04035323 -66.109375 44.84375 C-67.28649793 40.89692605 -67.82788919 38.36311606 -67.171875 34.28125 C-63.48982935 28.43349514 -58.25223894 25.10810438 -52.359375 21.78125 C-50.59329992 20.75468015 -48.82769881 19.72729461 -47.0625 18.69921875 C-46.12083984 18.15571777 -45.17917969 17.6122168 -44.20898438 17.05224609 C-40.92194442 15.13551074 -37.6609205 13.17798044 -34.40625 11.20703125 C-33.84017532 10.86465424 -33.27410065 10.52227722 -32.69087219 10.16952515 C-29.89671896 8.47917295 -27.10363769 6.78706556 -24.3112793 5.09375 C-23.29461182 4.48144531 -22.27794434 3.86914062 -21.23046875 3.23828125 C-19.87393188 2.41807495 -19.87393188 2.41807495 -18.48999023 1.58129883 C-12.97433415 -1.51199961 -6.02385212 -1.99350502 0 0 Z " fill="#FCFAFD" transform="translate(702.171875,392.71875)"/>
<path d="M0 0 C4.50889327 3.17672026 8.18386385 5.98244086 9.265625 11.62890625 C9.49188757 17.56829875 8.85842833 21.42824939 4.75 25.9375 C-0.56842142 31.27719511 -6.23508788 36.00757686 -13.25 38.9375 C-14.24 38.9375 -15.23 38.9375 -16.25 38.9375 C-16.25 39.5975 -16.25 40.2575 -16.25 40.9375 C-18.3304054 42.08893825 -20.41401997 43.23374112 -22.5 44.375 C-23.37978516 44.86323242 -23.37978516 44.86323242 -24.27734375 45.36132812 C-27.2225979 46.96632617 -29.92894245 48.3538488 -33.25 48.9375 C-30.54621149 45.81928881 -27.13990177 43.97796847 -23.60546875 41.953125 C-22.27510554 41.17496636 -20.94503671 40.39630424 -19.61523438 39.6171875 C-17.53174448 38.40285806 -15.44624828 37.19252598 -13.35522461 35.99121094 C-0.86194882 29.32560787 -0.86194882 29.32560787 6.75 17.9375 C7.11945059 12.94991703 6.93227193 9.88790654 3.75 5.9375 C-1.75503567 2.08397503 -6.67368072 1.21147435 -13.25 1.9375 C-25.81071725 5.60981398 -37.76013648 14.79571 -48.92480469 21.53417969 C-63.04001334 30.05310234 -77.18188097 38.51834356 -91.43481445 46.80517578 C-100.82528461 52.2651636 -110.17709243 57.78913543 -119.5234375 63.32421875 C-123.21381557 65.50778056 -126.90772183 67.68533955 -130.6015625 69.86303711 C-133.34049481 71.47963404 -136.07671164 73.1007457 -138.8125 74.72265625 C-142.51090066 76.91457326 -146.22057313 79.08575765 -149.9375 81.24609375 C-151.750133 82.30966919 -153.56263803 83.37346278 -155.375 84.4375 C-156.21047363 84.91775635 -157.04594727 85.3980127 -157.90673828 85.89282227 C-162.90457185 88.8442947 -166.58596288 91.60942576 -169.25 96.9375 C-169.86150944 102.84875789 -169.16510741 106.34940035 -165.7265625 111.23828125 C-162.97443041 114.40541738 -160.28097564 115.59964394 -156.18359375 116.28125 C-150.49506354 116.67697384 -146.85679083 115.05292275 -142.09765625 112.03125 C-140.25 110.9375 -140.25 110.9375 -138.25 110.9375 C-138.25 111.5975 -138.25 112.2575 -138.25 112.9375 C-139.24 112.9375 -140.23 112.9375 -141.25 112.9375 C-141.25 113.5975 -141.25 114.2575 -141.25 114.9375 C-146.64076152 117.67566458 -151.07066751 119.836312 -157.25 118.9375 C-163.14047339 116.92501581 -166.69849047 113.99571054 -170.25 108.9375 C-172.13860217 103.27169348 -171.9323992 97.8547168 -169.9375 92.25 C-166.77671865 87.42262484 -161.25509321 84.5512709 -156.25 81.9375 C-155.59 81.9375 -154.93 81.9375 -154.25 81.9375 C-154.25 81.2775 -154.25 80.6175 -154.25 79.9375 C-153.30769531 79.56238281 -152.36539062 79.18726563 -151.39453125 78.80078125 C-146.35566898 76.63909794 -141.67579554 73.870014 -136.9375 71.125 C-136.05126953 70.61646484 -135.16503906 70.10792969 -134.25195312 69.58398438 C-128.20821301 66.10585822 -122.2191174 62.54189185 -116.25 58.9375 C-109.16879821 54.67361846 -102.08466155 50.4185577 -94.94799805 46.24804688 C-88.52394601 42.49364491 -82.16518649 38.66253799 -75.875 34.6875 C-70.69158948 31.41396439 -65.46031416 28.35164659 -60.046875 25.46875 C-56.79240511 23.68697319 -53.61249603 21.79325332 -50.4375 19.875 C-49.82704834 19.50673096 -49.21659668 19.13846191 -48.58764648 18.7590332 C-47.24379186 17.94828071 -45.89996193 17.1374873 -44.55615234 16.32666016 C-39.96171124 13.55910036 -35.35846931 10.80662879 -30.75 8.0625 C-29.81824951 7.50296631 -28.88649902 6.94343262 -27.92651367 6.36694336 C-18.75150758 0.91455267 -10.81565387 -3.53588684 0 0 Z " fill="#7423D8" transform="translate(496.25,284.0625)"/>
<path d="M0 0 C0 0.33 0 0.66 0 1 C-0.60585938 1.01417969 -1.21171875 1.02835937 -1.8359375 1.04296875 C-11.3315622 1.58348893 -17.89158731 5.66022865 -25.83203125 10.59375 C-33.4540706 15.30805116 -41.16191841 19.87424879 -48.875 24.4375 C-51.58107126 26.03978757 -54.28675234 27.6427324 -56.9921875 29.24609375 C-57.66086853 29.64230927 -58.32954956 30.03852478 -59.01849365 30.44674683 C-64.14449513 33.48657047 -69.25621238 36.54969089 -74.36422729 39.61961365 C-82.23050901 44.34452454 -90.1270152 49.0185037 -98.02050781 53.69775391 C-107.69825363 59.43557563 -117.35799639 65.20231955 -127 71 C-133.23702195 74.74915779 -133.23702195 74.74915779 -136.34667969 76.61767578 C-138.43370029 77.87183989 -140.52026174 79.12676828 -142.60644531 80.38232422 C-147.45439533 83.29503328 -152.30761491 86.19302512 -157.2109375 89.01171875 C-158.37423584 89.68279663 -158.37423584 89.68279663 -159.56103516 90.36743164 C-160.96559095 91.17435412 -162.37383614 91.97490761 -163.78662109 92.76733398 C-168.30328201 95.36491118 -172.61503804 98.23007607 -175 103 C-175.50203894 110.53058403 -173.7906096 115.06876907 -169 121 C-170.32 120.67 -171.64 120.34 -173 120 C-173 119.34 -173 118.68 -173 118 C-173.66 118 -174.32 118 -175 118 C-178.08737147 112.98302137 -178.90215978 108.75515725 -178 103 C-174.61997475 95.81744634 -167.91309156 91.94730197 -161.12109375 88.3359375 C-154.82948487 84.93722118 -148.65744935 81.34740019 -142.49414062 77.72363281 C-140.6354614 76.63114894 -138.77488371 75.54195554 -136.9140625 74.453125 C-129.95820512 70.37527201 -123.06428793 66.21083027 -116.20654297 61.96923828 C-110.75905862 58.62376784 -105.2541828 55.37604117 -99.75 52.125 C-98.55194564 51.4160294 -97.3539484 50.70696226 -96.15600586 49.99780273 C-91.2621257 47.10195306 -86.36621414 44.2097049 -81.45703125 41.33984375 C-74.03372183 37.00013318 -66.65940852 32.5882068 -59.31811523 28.11083984 C-56.93628602 26.6586238 -54.55169509 25.21112486 -52.16430664 23.76806641 C-51.56505875 23.40580963 -50.96581085 23.04355286 -50.34840393 22.6703186 C-49.12050205 21.92811641 -47.89250428 21.18607285 -46.66441345 20.44418335 C-42.80227559 18.10626583 -38.96207127 15.7359148 -35.13287354 13.34446716 C-32.55515088 11.74148374 -29.96418559 10.16082295 -27.37023926 8.58425903 C-26.14064449 7.83031865 -24.91668684 7.06709239 -23.69909668 6.29391479 C-15.61958572 1.17150484 -9.61814105 -1.1695083 0 0 Z " fill="#7221D7" transform="translate(462,374)"/>
<path d="M0 0 C0.99 0.495 0.99 0.495 2 1 C-3.51114306 4.8085135 -9.15682174 8.38780117 -14.875 11.875 C-15.52927979 12.28032959 -16.18355957 12.68565918 -16.85766602 13.10327148 C-21.65077371 16 -21.65077371 16 -25 16 C-25 16.66 -25 17.32 -25 18 C-25.589021 18.33209473 -26.17804199 18.66418945 -26.78491211 19.00634766 C-29.50446784 20.54234123 -32.22098421 22.08363692 -34.9375 23.625 C-35.86369141 24.14707031 -36.78988281 24.66914063 -37.74414062 25.20703125 C-42.99434903 28.19136024 -48.08060718 31.31423429 -53.07739258 34.70556641 C-55.29118886 36.19604868 -57.54702214 37.57030911 -59.875 38.875 C-60.59429687 39.28492188 -61.31359375 39.69484375 -62.0546875 40.1171875 C-64 41 -64 41 -67 41 C-67 41.66 -67 42.32 -67 43 C-67.83660156 43.47308594 -68.67320312 43.94617188 -69.53515625 44.43359375 C-75.86334488 48.02459698 -82.15105076 51.6684152 -88.375 55.4375 C-93.50664016 58.54451126 -98.69171629 61.52772435 -103.9375 64.4375 C-113.16756006 69.57131956 -122.08205037 75.18499416 -130.95703125 80.90625 C-137.1222046 84.87795758 -143.3795175 88.63051438 -149.78515625 92.19921875 C-151.62517846 93.22989948 -153.45432625 94.28207734 -155.24609375 95.39453125 C-160.94190488 98.74570495 -166.5310939 98.38813437 -173 98 C-173 97.67 -173 97.34 -173 97 C-172.21238281 96.93828613 -171.42476563 96.87657227 -170.61328125 96.81298828 C-161.36752293 95.78309834 -154.85077677 92.7251193 -147 87.875 C-145.39125 86.9159375 -145.39125 86.9159375 -143.75 85.9375 C-139.39299651 83.32958205 -135.0736136 80.66242355 -130.75219727 77.99609375 C-123.19349972 73.33305058 -115.58724823 68.76203591 -107.9375 64.25 C-105.55941271 62.8445662 -103.18196931 61.43804575 -100.8046875 60.03125 C-100.22060623 59.68568054 -99.63652496 59.34011108 -99.03474426 58.98406982 C-91.46463049 54.50276168 -83.92525242 49.97050465 -76.38720703 45.43554688 C-73.09867572 43.45798867 -69.80805112 41.48392793 -66.51733398 39.51000977 C-64.00090945 38.00054553 -61.48482963 36.49050779 -58.96875 34.98046875 C-55.74078284 33.04356256 -52.5115823 31.10874008 -49.28125 29.17578125 C-47.68742377 28.22148147 -46.09367454 27.26705308 -44.5 26.3125 C-43.30866455 25.59912476 -43.30866455 25.59912476 -42.09326172 24.87133789 C-36.95867395 21.79108519 -31.83877094 18.68750176 -26.7265625 15.5703125 C-25.78432831 14.9962693 -25.78432831 14.9962693 -24.82305908 14.41062927 C-21.70252557 12.50947082 -18.58340276 10.60607676 -15.46679688 8.69848633 C-14.31386667 7.99549954 -13.16087466 7.29261409 -12.0078125 6.58984375 C-10.99348145 5.96972412 -9.97915039 5.34960449 -8.93408203 4.71069336 C-5.9977789 2.99870501 -3.11100175 1.37263077 0 0 Z " fill="#7626DA" transform="translate(467,399)"/>
<path d="M0 0 C0.99 0.33 1.98 0.66 3 1 C1.65364583 1.79557292 0.30729167 2.59114583 -1.0390625 3.38671875 C-1.91860596 3.90645264 -2.79814941 4.42618652 -3.7043457 4.96166992 C-5.67682627 6.12721913 -7.64932009 7.29274592 -9.62182617 8.45825195 C-14.6687608 11.44040443 -19.71551483 14.42286122 -24.76171875 17.40625 C-26.61196416 18.50002539 -28.46222439 19.5937757 -30.3125 20.6875 C-31.22604248 21.22753662 -32.13958496 21.76757324 -33.08081055 22.32397461 C-38.69462822 25.64134487 -44.3142559 28.94864075 -49.9375 32.25 C-54.99721474 35.22072828 -60.03852485 38.21927002 -65.0625 41.25 C-71.52612239 45.14607431 -78.04040086 48.95278104 -84.5625 52.75 C-88.70865129 55.16612148 -92.85440662 57.58292141 -97 60 C-98.55895996 60.90830566 -98.55895996 60.90830566 -100.14941406 61.83496094 C-103.16461535 63.59406518 -106.17646819 65.35877065 -109.1875 67.125 C-110.55853882 67.92309082 -110.55853882 67.92309082 -111.95727539 68.73730469 C-120.65554115 73.31346094 -120.65554115 73.31346094 -126 81 C-126.45334816 86.62151717 -126.18933562 90.16100802 -123 95 C-120.44860147 97.34325664 -120.44860147 97.34325664 -118 99 C-118.495 99.99 -118.495 99.99 -119 101 C-124.06735093 98.35115747 -126.27015229 95.70728087 -128.375 90.375 C-129.63456446 85.58865504 -128.80018234 81.76040114 -126.75 77.25 C-122.52020372 71.81169049 -116.35788203 68.72015702 -110.5 65.3125 C-109.54440186 64.75216064 -108.58880371 64.19182129 -107.60424805 63.61450195 C-104.40492328 61.73940524 -101.20243985 59.8697708 -98 58 C-93.88004562 55.58794759 -89.7611863 53.1740296 -85.64245605 50.7598877 C-83.80254916 49.68166862 -81.96232636 48.60399022 -80.12207031 47.52636719 C-70.51471863 41.89858746 -60.93073627 36.23207592 -51.35668945 30.54785156 C-45.7942643 27.24577 -40.22558139 23.95543368 -34.64160156 20.68994141 C-28.48597254 17.09003524 -22.42126159 13.39728142 -16.4296875 9.52734375 C-13.33176695 7.5799371 -10.15741591 5.80676715 -6.9375 4.0703125 C-5.29124064 3.16088697 -3.70033704 2.15239372 -2.125 1.125 C-1.073125 0.568125 -1.073125 0.568125 0 0 Z " fill="#7122D7" transform="translate(444,531)"/>
<path d="M0 0 C3.4375 0.875 3.4375 0.875 6 2 C6.495 2.99 6.495 2.99 7 4 C6.33613281 3.84402344 5.67226563 3.68804687 4.98828125 3.52734375 C3.66376953 3.23537109 3.66376953 3.23537109 2.3125 2.9375 C1.00732422 2.64166016 1.00732422 2.64166016 -0.32421875 2.33984375 C-5.92592934 1.62838562 -9.83411476 3.81198273 -14.50390625 6.65625 C-15.13054672 7.03007812 -15.75718719 7.40390625 -16.40281677 7.7890625 C-18.46034275 9.01902443 -20.51138677 10.25937865 -22.5625 11.5 C-24.00811986 12.3671097 -25.4540883 13.23363848 -26.90039062 14.09960938 C-37.08999019 20.20938632 -47.24219104 26.38180797 -57.38769531 32.56445312 C-67.78643536 38.89710356 -78.25123936 45.11671196 -88.72851562 51.31835938 C-89.35845428 51.69142212 -89.98839294 52.06448486 -90.63742065 52.44885254 C-91.88134568 53.18488471 -93.12590326 53.91984903 -94.37112427 54.65368652 C-97.67222119 56.6028818 -100.95221161 58.58067693 -104.21240234 60.59765625 C-104.90073654 61.02038818 -105.58907074 61.44312012 -106.29826355 61.87866211 C-107.6242704 62.69440205 -108.94633149 63.51659965 -110.26387024 64.34594727 C-111.80677074 65.29170055 -113.39990151 66.15461485 -115 67 C-115.66 66.67 -116.32 66.34 -117 66 C-100.58441418 55.63708828 -83.91768165 45.71206303 -67.19921875 35.84741211 C-52.71459087 27.29604739 -38.31869643 18.59881154 -23.9375 9.875 C-23.31405701 9.49702271 -22.69061401 9.11904541 -22.04827881 8.72961426 C-20.27001616 7.65121284 -18.49233254 6.57186385 -16.71484375 5.4921875 C-15.68480225 4.86683105 -14.65476074 4.24147461 -13.59350586 3.59716797 C-8.6850065 0.57434929 -5.7945162 -0.54665247 0 0 Z " fill="#7220D6" transform="translate(725,448)"/>
<path d="M0 0 C0.99 0.495 0.99 0.495 2 1 C-8.60822879 7.80790601 -19.30784207 14.42066614 -30.18139648 20.79638672 C-37.13285471 24.87899867 -44.03477384 29.03898858 -50.91848755 33.23452759 C-60.65906542 39.17008458 -70.41146976 45.0861373 -80.20767212 50.92953491 C-81.39313707 51.63755204 -82.57754434 52.34734339 -83.76083374 53.05899048 C-85.4000912 54.04427624 -87.04370279 55.02230691 -88.6875 56 C-89.61949219 56.556875 -90.55148437 57.11375 -91.51171875 57.6875 C-93.72232897 58.85353616 -95.55845678 59.54256801 -98 60 C-95.22907233 56.79262585 -91.67352203 54.86582261 -88.0625 52.75 C-87.40241943 52.3566748 -86.74233887 51.96334961 -86.06225586 51.55810547 C-82.84655652 49.64778137 -79.61518726 47.77421769 -76.34375 45.9609375 C-75.2609375 45.35507812 -74.178125 44.74921875 -73.0625 44.125 C-72.08410156 43.59132813 -71.10570312 43.05765625 -70.09765625 42.5078125 C-69.40542969 42.01023437 -68.71320312 41.51265625 -68 41 C-68 40.01 -68 39.02 -68 38 C-67.02804687 37.94714844 -66.05609375 37.89429688 -65.0546875 37.83984375 C-59.99040875 37.10675573 -56.29992383 34.3671373 -52.125 31.5625 C-50.42327786 30.45357341 -48.72012641 29.34683739 -47.015625 28.2421875 C-46.16806641 27.69014648 -45.32050781 27.13810547 -44.44726562 26.56933594 C-40.32845962 23.92810639 -36.10392294 21.47917266 -31.87133789 19.02636719 C-27.3638239 16.40636486 -22.89774839 13.72703122 -18.44921875 11.0078125 C-16.72542434 9.95801419 -15.00131333 8.90873735 -13.27716064 7.85952759 C-11.5816413 6.8241883 -9.89112704 5.78066692 -8.20068359 4.73706055 C-7.16637207 4.10840088 -6.13206055 3.47974121 -5.06640625 2.83203125 C-4.13771729 2.26202393 -3.20902832 1.6920166 -2.25219727 1.10473633 C-1.50897217 0.74017334 -0.76574707 0.37561035 0 0 Z " fill="#7424D7" transform="translate(701,531)"/>
<path d="M0 0 C4.27031386 1.75970305 7.2444834 3.98477457 10 7.6875 C11.33560531 12.11169258 11.63561206 16.41038565 11 21 C10.34 21.66 9.68 22.32 9 23 C8.97421875 22.11957031 8.9484375 21.23914063 8.921875 20.33203125 C8.86515625 19.17058594 8.8084375 18.00914062 8.75 16.8125 C8.70359375 15.66394531 8.6571875 14.51539063 8.609375 13.33203125 C7.79834559 8.89736401 5.82705195 6.37028896 2.25 3.6875 C-4.90607285 1.50092218 -9.57463948 3.32169714 -16.03857422 6.67895508 C-23.94825516 10.94755785 -31.59805317 15.67892442 -39.2734375 20.35009766 C-45.81938429 24.31119261 -52.42163053 28.17823593 -59.015625 32.05859375 C-62.0164551 33.82455395 -65.00790737 35.60345582 -67.984375 37.41015625 C-69.60085938 38.38275391 -69.60085938 38.38275391 -71.25 39.375 C-72.58804687 40.19097656 -72.58804687 40.19097656 -73.953125 41.0234375 C-74.96632813 41.50683594 -74.96632813 41.50683594 -76 42 C-76.66 41.67 -77.32 41.34 -78 41 C-67.69137731 34.5545285 -57.39609847 28.12295608 -46.796875 22.1640625 C-40.83117014 18.79228567 -34.96055259 15.25366295 -29.07641602 11.7421875 C-7.39851746 -1.14022686 -7.39851746 -1.14022686 0 0 Z " fill="#7120D8" transform="translate(383,497)"/>
<path d="M0 0 C0.99 0.495 0.99 0.495 2 1 C-1.42426843 3.85563992 -4.88269468 6.22249576 -8.75 8.4375 C-9.79414062 9.035625 -10.83828125 9.63375 -11.9140625 10.25 C-13.44160156 11.11625 -13.44160156 11.11625 -15 12 C-16.34191406 12.7734375 -16.34191406 12.7734375 -17.7109375 13.5625 C-18.50757813 14.01625 -19.30421875 14.47 -20.125 14.9375 C-21.18074219 15.53884766 -21.18074219 15.53884766 -22.2578125 16.15234375 C-24 17 -24 17 -26 17 C-26 17.66 -26 18.32 -26 19 C-26.95777344 19.53367187 -27.91554688 20.06734375 -28.90234375 20.6171875 C-36.32554016 24.76536121 -43.71999287 28.96041717 -51.0625 33.25 C-51.75142334 33.64944824 -52.44034668 34.04889648 -53.15014648 34.46044922 C-56.47030878 36.40988011 -59.64795943 38.43188362 -62.75 40.71484375 C-66.30554628 43.21483723 -68.81977087 44.06158121 -73 45 C-73 45.66 -73 46.32 -73 47 C-75.8125 48.5625 -75.8125 48.5625 -79 50 C-79.99 49.67 -80.98 49.34 -82 49 C-80.70304199 48.23091309 -80.70304199 48.23091309 -79.37988281 47.44628906 C-50.94611441 30.58740535 -50.94611441 30.58740535 -22.6328125 13.52734375 C-21.992229 13.13818787 -21.35164551 12.74903198 -20.69165039 12.3480835 C-17.49758271 10.40728136 -14.30432077 8.46517068 -11.11230469 6.52099609 C-9.94726674 5.81217264 -8.78222773 5.10335094 -7.6171875 4.39453125 C-6.06427002 3.44864136 -6.06427002 3.44864136 -4.47998047 2.48364258 C-2 1 -2 1 0 0 Z " fill="#7426D7" transform="translate(657,363)"/>
<path d="M0 0 C0.99 0.495 0.99 0.495 2 1 C-4.62622689 5.84883897 -11.49864494 10.17318189 -18.5546875 14.35546875 C-23.83368386 17.48524613 -29.07224008 20.6809286 -34.3125 23.875 C-35.30548096 24.47973145 -36.29846191 25.08446289 -37.3215332 25.70751953 C-41.74997753 28.40548635 -46.1765998 31.10634845 -50.59765625 33.81640625 C-63.34701755 41.63034493 -76.16873695 49.32151026 -89 57 C-89.33 56.34 -89.66 55.68 -90 55 C-86.25651042 52.75390625 -82.51302083 50.5078125 -78.76953125 48.26171875 C-78.1245166 47.87290527 -77.47950195 47.4840918 -76.81494141 47.08349609 C-75.24612504 46.14693341 -73.6615074 45.23693412 -72.07421875 44.33203125 C-69.87015268 43.16609539 -69.87015268 43.16609539 -69 41 C-67.39533013 40.31289975 -65.78820587 39.63114754 -64.17138672 38.97314453 C-59.77120138 37.00112533 -55.69383196 34.41199757 -51.5625 31.9375 C-50.10106567 31.06750366 -50.10106567 31.06750366 -48.61010742 30.17993164 C-40.33239514 25.23562681 -32.14332628 20.1617446 -24 15 C-21.45763259 13.39274457 -18.9147969 11.78623232 -16.37182617 10.17993164 C-14.70731507 9.12800127 -13.0433833 8.07515344 -11.38012695 7.02124023 C-9.89802653 6.08298076 -8.4141822 5.14746762 -6.92822266 4.21533203 C-5.30020957 3.18921793 -3.68560746 2.14187189 -2.07421875 1.08984375 C-1.38972656 0.73019531 -0.70523438 0.37054687 0 0 Z " fill="#7423D7" transform="translate(509,643)"/>
<path d="M0 0 C1.98 0 3.96 0 6 0 C4.68 0.33 3.36 0.66 2 1 C5.78279024 5.98707698 9.83926827 9.31239404 15 12.8125 C16.12776855 13.59451782 16.12776855 13.59451782 17.27832031 14.39233398 C20.68436048 16.7501671 24.11049942 19.07729967 27.546875 21.390625 C35.5074742 26.78829958 42.76982466 32.68199818 50 39 C50.77472656 39.66257812 51.54945313 40.32515625 52.34765625 41.0078125 C56.77200672 44.80985549 60.93305744 48.81867468 65 53 C59.85714286 57.42857143 59.85714286 57.42857143 56 58 C57.28965176 56.62437146 58.62689293 55.29233607 60 54 C60.66 54 61.32 54 62 54 C50.70738685 39.45581731 34.8481766 28.82654523 19.64575195 18.7980957 C5.24134045 9.24134045 5.24134045 9.24134045 0 4 C0 2.68 0 1.36 0 0 Z " fill="#7020DA" transform="translate(399,468)"/>
<path d="M0 0 C0.53625 0.2475 1.0725 0.495 1.625 0.75 C0.67625 1.28625 -0.2725 1.8225 -1.25 2.375 C-4.96677485 4.49887134 -8.63320548 6.70012724 -12.296875 8.9140625 C-14.69383737 10.34372279 -17.09926169 11.75219499 -19.515625 13.1484375 C-28.323743 18.11286657 -28.323743 18.11286657 -36.5625 23.9375 C-40.92921853 27.41907288 -45.95322628 29.66087384 -50.95703125 32.06640625 C-54.60059566 33.86112198 -58.06177944 35.85460977 -61.5078125 38 C-63.84562833 38.939039 -65.04259496 38.57929957 -67.375 37.75 C-66.13363281 37.10998047 -66.13363281 37.10998047 -64.8671875 36.45703125 C-54.11851883 30.85110427 -43.71600444 24.70557007 -33.30810547 18.49511719 C-30.30582562 16.70884314 -27.29670753 14.9346561 -24.28515625 13.1640625 C-23.29523682 12.58164795 -22.30531738 11.9992334 -21.28540039 11.39916992 C-19.39324731 10.28635344 -17.50053653 9.17448452 -15.60717773 8.0637207 C-11.96647989 5.91830339 -8.365611 3.78113698 -4.8984375 1.36328125 C-2.375 -0.25 -2.375 -0.25 0 0 Z " fill="#7729DB" transform="translate(573.375,414.25)"/>
<path d="M0 0 C0.66 0.33 1.32 0.66 2 1 C1.14277344 1.51949219 0.28554688 2.03898438 -0.59765625 2.57421875 C-8.03393852 7.07152641 -8.03393852 7.07152641 -15.1875 12 C-18 14 -18 14 -20 14 C-20.309375 14.78375 -20.61875 15.5675 -20.9375 16.375 C-22 19 -22 19 -23 21 C-23.59810582 27.10067939 -22.45869755 30.13912777 -19 35 C-15.72904184 37.81665842 -12.64445551 38.64813983 -8.3046875 38.484375 C-1.13979585 36.97853337 5.40762077 31.87188481 11.44140625 27.8828125 C13 27 13 27 15 27 C15 27.66 15 28.32 15 29 C12.68698046 30.64663813 10.24583422 31.99351541 7.78125 33.40234375 C6.06521072 34.38810227 4.3710288 35.41464711 2.71875 36.50390625 C-3.11297227 40.21212096 -8.15047643 40.99410948 -15 40 C-19.20261675 38.30106982 -21.41945133 35.6864981 -24 32 C-25.81789723 26.54630831 -25.66221858 21.74584898 -23.625 16.375 C-18.67020053 8.84718185 -8.07452281 3.47653065 0 0 Z " fill="#7020D9" transform="translate(383,643)"/>
<path d="M0 0 C0.99 0.495 0.99 0.495 2 1 C-0.33739092 4.50608638 -2.05870109 5.25271532 -5.8125 7.0625 C-6.85019531 7.56910156 -7.88789062 8.07570313 -8.95703125 8.59765625 C-11.61181966 9.82110816 -14.27398555 10.94688167 -17 12 C-17 12.66 -17 13.32 -17 14 C-17.78375 14.36738281 -18.5675 14.73476563 -19.375 15.11328125 C-24.10717736 17.48075523 -28.5246603 20.37421081 -33 23.1875 C-40.37580252 27.79368418 -47.79568573 32.26329165 -55.3828125 36.51171875 C-57.29875548 37.6012326 -59.16611171 38.77740781 -61 40 C-61.99 39.67 -62.98 39.34 -64 39 C-62.89881836 38.351521 -62.89881836 38.351521 -61.77539062 37.68994141 C-43.97436918 27.22470978 -43.97436918 27.22470978 -26.39697266 16.390625 C-21.32973053 13.1882482 -16.20240978 10.09438293 -11.04394531 7.04125977 C-7.27841252 4.80382289 -3.62406924 2.45643599 0 0 Z " fill="#782AD8" transform="translate(649,524)"/>
<path d="M0 0 C0.99 0.33 1.98 0.66 3 1 C0.31777563 4.67564081 -2.02530431 6.82338093 -6 9 C-7.051875 9.721875 -8.10375 10.44375 -9.1875 11.1875 C-12 13 -12 13 -14 13 C-14 13.66 -14 14.32 -14 15 C-14.9178125 15.51949219 -15.835625 16.03898437 -16.78125 16.57421875 C-22.63687017 19.89849896 -28.45966546 23.23419937 -34.140625 26.8515625 C-36.9770581 28.60347706 -39.89564407 30.19792133 -42.8203125 31.796875 C-44.88139308 32.93453238 -46.90933316 34.11748053 -48.9375 35.3125 C-52 37 -52 37 -54 37 C-54 36.34 -54 35.68 -54 35 C-53.33170166 34.63350342 -52.66340332 34.26700684 -51.97485352 33.8894043 C-24.27540499 19.42270994 -24.27540499 19.42270994 0 0 Z " fill="#772AD9" transform="translate(583,482)"/>
<path d="M0 0 C0.66 0.33 1.32 0.66 2 1 C-0.32328907 3.58729919 -2.66030492 4.99424568 -5.75 6.5625 C-10.68546611 9.18859026 -15.35200355 12.09127648 -20 15.1875 C-20.64678711 15.61554932 -21.29357422 16.04359863 -21.95996094 16.48461914 C-25.44612478 18.81528873 -25.44612478 18.81528873 -28.55297852 21.61230469 C-30.52804115 23.50639208 -32.33712963 23.47211821 -35 24 C-37.80569182 25.54274028 -37.80569182 25.54274028 -40.5625 27.4375 C-47.45064677 32.01367518 -47.45064677 32.01367518 -50 33 C-50.99 32.67 -51.98 32.34 -53 32 C-51.81748657 31.29206299 -51.81748657 31.29206299 -50.61108398 30.56982422 C-47.56993961 28.74862378 -44.52930178 26.92658216 -41.4888916 25.10415649 C-40.12461317 24.2867057 -38.7601122 23.46962618 -37.39538574 22.65292358 C-30.22319953 18.3608084 -23.06201133 14.05504162 -15.95703125 9.65234375 C-14.90265869 9.00088379 -13.84828613 8.34942383 -12.76196289 7.67822266 C-10.78169415 6.45157001 -8.80547697 5.21834797 -6.83374023 3.97802734 C-5.95532471 3.43484863 -5.07690918 2.89166992 -4.171875 2.33203125 C-3.4097168 1.85483643 -2.64755859 1.3776416 -1.86230469 0.88598633 C-1.24774414 0.59361084 -0.63318359 0.30123535 0 0 Z " fill="#782BD9" transform="translate(709,488)"/>
<path d="M0 0 C0.33 0 0.66 0 1 0 C1.09474609 0.97839844 1.09474609 0.97839844 1.19140625 1.9765625 C1.89107552 6.96999162 2.56166341 10.21368573 6.5 13.5625 C10.92794071 16.8740743 14.46684026 17.65784934 20 17 C27.69720351 14.70409263 34.30173902 10.57299113 41 6.25 C42.85167529 5.0638102 44.70572173 3.88131092 46.5625 2.703125 C47.36816406 2.18395508 48.17382812 1.66478516 49.00390625 1.12988281 C51 0 51 0 53 0 C53 0.66 53 1.32 53 2 C52.11699219 2.49628906 51.23398437 2.99257813 50.32421875 3.50390625 C43.54840576 7.33326004 36.89475193 11.25309194 30.40234375 15.5546875 C24.0978527 19.34763334 18.25622543 19.94565002 11 19 C7.96679622 17.75430257 5.36188783 16.29242054 3 14 C3 13.34 3 12.68 3 12 C2.34 12 1.68 12 1 12 C-1.83022097 8.00439392 -0.76210446 4.57262677 0 0 Z " fill="#7525D9" transform="translate(416,704)"/>
<path d="M0 0 C0.66 0.33 1.32 0.66 2 1 C-3.05722651 5.56836128 -8.56607902 8.80630779 -14.5 12.125 C-15.42425781 12.64964844 -16.34851563 13.17429687 -17.30078125 13.71484375 C-33.03977513 22.60883886 -33.03977513 22.60883886 -40 21 C-45.31126837 18.04653768 -49.22779659 14.95019589 -51 9 C-51.23608151 6.29450593 -51.09234983 3.72432002 -51 1 C-50.67 1 -50.34 1 -50 1 C-49.92523437 1.56847656 -49.85046875 2.13695312 -49.7734375 2.72265625 C-48.71784811 8.92165667 -46.63530596 12.74212354 -42 17 C-38.43066647 19.37955569 -36.11736983 19.8188821 -32 19 C-26.20858129 16.62698186 -20.97427307 12.98973359 -15.69140625 9.671875 C-14.74668457 9.08043701 -13.80196289 8.48899902 -12.82861328 7.87963867 C-10.90846309 6.67277515 -8.99398767 5.45683325 -7.08544922 4.23168945 C-6.20002441 3.6718335 -5.31459961 3.11197754 -4.40234375 2.53515625 C-3.60304443 2.023479 -2.80374512 1.51180176 -1.98022461 0.98461914 C-1.00001343 0.49723267 -1.00001343 0.49723267 0 0 Z " fill="#7223D9" transform="translate(649,597)"/>
<path d="M0 0 C4.50516934 2.85904978 6.46963425 6.07590036 8.25 11.0625 C9.13840778 15.80846785 8.75561424 19.03182482 6.625 23.375 C4.0451511 26.29430271 1.68980803 28.23281488 -1.75 30.0625 C-2.74 29.7325 -3.73 29.4025 -4.75 29.0625 C1 25.0625 1 25.0625 3.25 25.0625 C6.23603802 20.08178858 5.88118238 14.68926004 5.25 9.0625 C3.14904503 5.31079469 1.13913518 3.70628915 -2.75 2.0625 C-12.03146927 0.33749009 -18.23720297 3.92285526 -25.75 9.0625 C-26.08 8.4025 -26.41 7.7425 -26.75 7.0625 C-17.37554082 1.0884492 -11.23210225 -2.80802556 0 0 Z " fill="#7728DA" transform="translate(602.75,297.9375)"/>
<path d="M0 0 C0.66 0 1.32 0 2 0 C5.32192727 3.6150385 6.3490013 6.39972306 6.625 11.3125 C6.35670817 17.47482786 4.38423011 21.66891207 0 26 C-2.22274879 27.44328775 -4.43218084 28.4889225 -6.8671875 29.53515625 C-11.87528397 31.87684724 -16.51284233 34.86093075 -21.19848633 37.78686523 C-22.25845825 38.42990601 -22.25845825 38.42990601 -23.33984375 39.0859375 C-23.97269287 39.4782959 -24.60554199 39.8706543 -25.25756836 40.27490234 C-27 41 -27 41 -30 40 C-29.33468262 39.5968457 -28.66936523 39.19369141 -27.98388672 38.77832031 C-24.94676599 36.93690391 -21.91087426 35.09347063 -18.875 33.25 C-17.82828125 32.61578125 -16.7815625 31.9815625 -15.703125 31.328125 C-9.46736322 27.55531088 -9.46736322 27.55531088 -3.3828125 23.546875 C-1 22 -1 22 1 22 C3.49561603 17.17514233 4.46548924 13.49277303 4 8 C2.09643013 4.72689447 2.09643013 4.72689447 0 2 C0 1.34 0 0.68 0 0 Z " fill="#7422DD" transform="translate(541,637)"/>
<path d="M0 0 C0.66 0.33 1.32 0.66 2 1 C-2.08843915 4.51124774 -6.42244328 7.05529688 -11.125 9.625 C-12.54483663 10.40782884 -13.96412892 11.19164598 -15.3828125 11.9765625 C-16.00559082 12.31768066 -16.62836914 12.65879883 -17.27001953 13.01025391 C-18.8890028 13.93649695 -20.44804597 14.96536398 -22 16 C-22.99 16 -23.98 16 -25 16 C-25 16.66 -25 17.32 -25 18 C-38.70177243 25.78984016 -38.70177243 25.78984016 -46 24 C-48.5625 22.375 -48.5625 22.375 -50 20 C-50.25 16.75 -50.25 16.75 -50 14 C-49.67 14 -49.34 14 -49 14 C-48.690625 14.969375 -48.38125 15.93875 -48.0625 16.9375 C-47.30476658 19.84065792 -47.30476658 19.84065792 -46 21 C-38.41160433 21.85675435 -34.26994988 19.97858962 -27.85546875 16.09228516 C-23.86297031 13.74196436 -19.75920427 11.58417493 -15.6875 9.375 C-10.29973402 6.44975139 -5.03706207 3.50047054 0 0 Z " fill="#7A2EDA" transform="translate(342,551)"/>
<path d="M0 0 C0.99 0.33 1.98 0.66 3 1 C-3.28389681 4.79536245 -9.60567341 8.5157884 -15.96484375 12.18359375 C-19.95666335 14.57252054 -23.79740151 17.16963438 -27.625 19.8125 C-30.41075447 21.20537723 -31.13919163 20.88721272 -34 20 C-33.14768799 19.50072998 -32.29537598 19.00145996 -31.41723633 18.48706055 C-28.23950979 16.62550849 -25.0619859 14.76361077 -21.88452148 12.90161133 C-20.51218049 12.09748127 -19.13978537 11.29344358 -17.76733398 10.48950195 C-15.78875544 9.33048696 -13.81037509 8.1711343 -11.83203125 7.01171875 C-10.91923149 6.47716316 -10.91923149 6.47716316 -9.98799133 5.93180847 C-7.37256589 4.39865152 -4.78935338 2.86057638 -2.26049805 1.18676758 C-1.51453369 0.79513428 -0.76856934 0.40350098 0 0 Z " fill="#7626DB" transform="translate(685,576)"/>
<path d="M0 0 C5.625 -0.25 5.625 -0.25 9 2 C14.47140318 4.1377083 19.17955427 5.68486587 25 4 C25 4.66 25 5.32 25 6 C25.66 6 26.32 6 27 6 C27 6.66 27 7.32 27 8 C27.928125 8.12375 28.85625 8.2475 29.8125 8.375 C33 9 33 9 36 11 C31.63833368 11.17757317 28.25384356 10.6658973 24.12109375 9.28515625 C23.03505859 8.92873047 21.94902344 8.57230469 20.83007812 8.20507812 C19.71052734 7.82802734 18.59097656 7.45097656 17.4375 7.0625 C15.20782248 6.3218326 12.97737983 5.5834636 10.74609375 4.84765625 C9.76310303 4.51773682 8.7801123 4.18781738 7.76733398 3.84790039 C5.18790107 3.05757216 2.65332445 2.47656358 0 2 C0 1.34 0 0.68 0 0 Z " fill="#7624DD" transform="translate(464,478)"/>
<path d="M0 0 C0.66 0.33 1.32 0.66 2 1 C-0.6400101 4.03043412 -3.75742637 5.68733929 -7.25 7.625 C-11.26701082 9.86176282 -15.24802645 12.12905733 -19.15234375 14.55859375 C-19.8268457 14.97608887 -20.50134766 15.39358398 -21.19628906 15.82373047 C-22.50666088 16.63893726 -23.81218358 17.46199957 -25.11230469 18.29345703 C-26.6962201 19.27301748 -28.34488928 20.14622299 -30 21 C-30.99 20.67 -31.98 20.34 -33 20 C-32.46221924 19.67837891 -31.92443848 19.35675781 -31.37036133 19.02539062 C-29.76212206 18.06315806 -28.15415466 17.10047104 -26.54638672 16.13745117 C-24.71910119 15.04300538 -22.89129868 13.9494223 -21.06298828 12.85668945 C-16.96708524 10.40357681 -12.87992249 7.94339839 -8.84765625 5.38671875 C-8.25170654 5.0103125 -7.65575684 4.63390625 -7.04174805 4.24609375 C-5.46908174 3.24725369 -3.90231084 2.23914875 -2.3359375 1.23046875 C-1.56507813 0.82441406 -0.79421875 0.41835938 0 0 Z " fill="#782ADA" transform="translate(639,675)"/>
<path d="M0 0 C0.66 0.33 1.32 0.66 2 1 C3.03114279 12.45714215 3.03114279 12.45714215 -0.375 17.375 C-3.57414108 21.03877824 -7.38713216 23.36777122 -11.6328125 25.67578125 C-13.92234542 26.95655957 -15.93974577 28.38122882 -18 30 C-18.99 29.34 -19.98 28.68 -21 28 C-18.39907118 26.3490067 -15.7937256 24.70511682 -13.1875 23.0625 C-12.44951172 22.59392578 -11.71152344 22.12535156 -10.95117188 21.64257812 C-10.23896484 21.19462891 -9.52675781 20.74667969 -8.79296875 20.28515625 C-8.1383667 19.87144775 -7.48376465 19.45773926 -6.80932617 19.03149414 C-5 18 -5 18 -2 17 C0.69878212 11.60243576 0.18824665 5.87747863 0 0 Z " fill="#7526DC" transform="translate(689,630)"/>
<path d="M0 0 C0.66 0 1.32 0 2 0 C1.44210432 7.01524148 0.81552077 14.00982196 0 21 C-0.66 21 -1.32 21 -2 21 C-2.12117187 21.59167969 -2.24234375 22.18335938 -2.3671875 22.79296875 C-3.26744643 27.03803585 -4.20456621 31.02439661 -6 35 C-7.21475288 31.47928433 -6.76876123 29.16810599 -5.8203125 25.60546875 C-5.55089844 24.56712891 -5.28148437 23.52878906 -5.00390625 22.45898438 C-4.71386719 21.37939453 -4.42382812 20.29980469 -4.125 19.1875 C-1.5849364 9.68797905 -1.5849364 9.68797905 0 0 Z " fill="#7527D8" transform="translate(526,519)"/>
<path d="M0 0 C2.50696229 0.95091673 3.94401245 1.93801378 5.75 3.9375 C7.66367355 8.62600021 7.62660013 13.00931428 7 18 C4.43124323 24.0716069 -1.3046288 27.93261165 -7 31 C-10.3203125 31.69921875 -10.3203125 31.69921875 -13 32 C-9.94247195 29.43562163 -6.79468138 27.20644257 -3.4375 25.0625 C1.52123113 21.7591732 1.52123113 21.7591732 5 17 C5.86154184 12.12095252 5.51004713 8.90492233 3.0625 4.5625 C2.0415625 3.2940625 2.0415625 3.2940625 1 2 C0.67 1.34 0.34 0.68 0 0 Z " fill="#7222D7" transform="translate(733,524)"/>
<path d="M0 0 C9.77486539 4.36459106 17.68426024 13.39861313 25 21 C19.61607143 25.46428571 19.61607143 25.46428571 16 26 C17.28965176 24.62437146 18.62689293 23.29233607 20 22 C20.66 22 21.32 22 22 22 C17.04178251 15.61412455 11.13127345 10.49488656 4.98022461 5.3059082 C4.33835205 4.76281006 3.69647949 4.21971191 3.03515625 3.66015625 C2.4512915 3.17168213 1.86742676 2.68320801 1.26586914 2.17993164 C0.84813232 1.7905542 0.43039551 1.40117676 0 1 C0 0.67 0 0.34 0 0 Z " fill="#6E20D6" transform="translate(439,500)"/>
<path d="M0 0 C0.66 0.33 1.32 0.66 2 1 C-3.50015717 4.74648387 -9.0688752 8.28254238 -14.8359375 11.60546875 C-17.02003797 12.90322731 -17.02003797 12.90322731 -18.62109375 14.6328125 C-20.54183453 16.5372297 -22.37814769 16.64569563 -25 17 C-23.69954105 13.09862314 -22.23238112 12.66074719 -18.72265625 10.609375 C-17.65208984 9.98289062 -16.58152344 9.35640625 -15.47851562 8.7109375 C-14.35123047 8.06382812 -13.22394531 7.41671875 -12.0625 6.75 C-10.93908203 6.08742188 -9.81566406 5.42484375 -8.65820312 4.7421875 C-2.42542261 1.12919868 -2.42542261 1.12919868 0 0 Z " fill="#7629D7" transform="translate(461,333)"/>
<path d="M0 0 C2.58113204 4.73768606 3.50278428 9.77509992 4.6875 15 C4.92533203 15.99773438 5.16316406 16.99546875 5.40820312 18.0234375 C5.62798828 18.98507812 5.84777344 19.94671875 6.07421875 20.9375 C6.27619873 21.81277344 6.47817871 22.68804688 6.6862793 23.58984375 C7.00823447 26.06326125 6.77815415 27.65157505 6 30 C2.5420217 20.28472762 -0.6120378 10.40464258 0 0 Z " fill="#8137DE" transform="translate(483,561)"/>
<path d="M0 0 C0.53394179 1.4117783 1.05165104 2.82970244 1.5625 4.25 C1.85253906 5.03890625 2.14257812 5.8278125 2.44140625 6.640625 C3.04522837 9.19103452 2.8473932 10.55322229 2 13 C-0.5654594 10.4345406 -0.54046087 8.52313332 -1 5 C-4.49284103 4.60081817 -5.69702501 4.77092135 -8.5625 6.9375 C-9.366875 7.618125 -10.17125 8.29875 -11 9 C-13.3125 9.75 -13.3125 9.75 -15 10 C-15 9.34 -15 8.68 -15 8 C-12.89980986 6.52690889 -10.82232271 5.18690365 -8.625 3.875 C-8.02171875 3.50246094 -7.4184375 3.12992188 -6.796875 2.74609375 C-2.27034684 0 -2.27034684 0 0 0 Z " fill="#792ADD" transform="translate(480,547)"/>
<path d="M0 0 C0.66 0.33 1.32 0.66 2 1 C-3.62711111 5.14902202 -9.4077962 8.96735102 -15.4375 12.5 C-16.04029785 12.86222656 -16.6430957 13.22445313 -17.26416016 13.59765625 C-18.79858624 14.48015673 -20.39686757 15.24950888 -22 16 C-22.99 15.67 -23.98 15.34 -25 15 C-21.48243291 12.83519739 -17.95865643 10.68093973 -14.42871094 8.53637695 C-13.22804945 7.80489653 -12.02914387 7.07052597 -10.83203125 6.33325195 C-9.11398958 5.27583144 -7.38911817 4.22953268 -5.6640625 3.18359375 C-4.62717285 2.54993896 -3.5902832 1.91628418 -2.52197266 1.26342773 C-1.68972168 0.84649658 -0.8574707 0.42956543 0 0 Z " fill="#792BDB" transform="translate(408,364)"/>
<path d="M0 0 C4.84579113 0.93789506 9.26351911 2.01321473 13.8125 3.9375 C19.3877081 6.28172136 25.11349434 7.66491624 31 9 C31 9.33 31 9.66 31 10 C20.66318928 9.15272043 10.30405572 6.72860445 1 2 C0.67 1.34 0.34 0.68 0 0 Z " fill="#7120D8" transform="translate(419,465)"/>
<path d="M0 0 C0.66 0.33 1.32 0.66 2 1 C-1.52841388 3.9305979 -5.13044613 6.45127928 -9.0625 8.8125 C-10.08472656 9.43769531 -11.10695313 10.06289063 -12.16015625 10.70703125 C-15.2790826 12.12706512 -15.90067282 11.98771592 -19 11 C-15.88258808 9.13284182 -12.7549542 7.28354339 -9.625 5.4375 C-8.73554687 4.90447266 -7.84609375 4.37144531 -6.9296875 3.82226562 C-6.07890625 3.32275391 -5.228125 2.82324219 -4.3515625 2.30859375 C-3.56604004 1.84251709 -2.78051758 1.37644043 -1.97119141 0.89624023 C-1.32069824 0.60048096 -0.67020508 0.30472168 0 0 Z " fill="#7829DD" transform="translate(657,363)"/>
<path d="M0 0 C0.66 0.33 1.32 0.66 2 1 C-11.93914402 10.17894642 -11.93914402 10.17894642 -20.20703125 8.6953125 C-22 8 -22 8 -23 6 C-22.01773437 6.10441406 -22.01773437 6.10441406 -21.015625 6.2109375 C-13.5625788 6.65306736 -8.87785646 4.91044825 -2.43359375 1.21484375 C-1.63050781 0.81394531 -0.82742188 0.41304688 0 0 Z " fill="#7220D9" transform="translate(524,483)"/>
<path d="M0 0 C3.09322404 0.3344026 4.58887768 0.5595118 6.75 2.875 C8.78080289 6.32736491 9.15854738 9.13073476 9.1875 13.0625 C9.20167969 13.94035156 9.21585937 14.81820312 9.23046875 15.72265625 C9 18 9 18 7 20 C6.97421875 19.11957031 6.9484375 18.23914063 6.921875 17.33203125 C6.86515625 16.17058594 6.8084375 15.00914062 6.75 13.8125 C6.70359375 12.66394531 6.6571875 11.51539063 6.609375 10.33203125 C5.74465827 5.60380452 3.30698256 3.30698256 0 0 Z " fill="#7C2EDF" transform="translate(385,500)"/>
<path d="M0 0 C0 0.66 0 1.32 0 2 C-1.94140625 3.3671875 -1.94140625 3.3671875 -4.5625 4.875 C-5.92955078 5.66197266 -5.92955078 5.66197266 -7.32421875 6.46484375 C-8.20722656 6.97144531 -9.09023438 7.47804688 -10 8 C-10.68707031 8.43441406 -11.37414062 8.86882813 -12.08203125 9.31640625 C-16.51582734 12.08873627 -16.51582734 12.08873627 -19.1953125 11.59765625 C-19.79085938 11.40042969 -20.38640625 11.20320312 -21 11 C-20.29875 10.62488281 -19.5975 10.24976563 -18.875 9.86328125 C-13.64247992 7.04084854 -8.51931908 4.16246043 -3.55859375 0.8828125 C-2 0 -2 0 0 0 Z " fill="#782AD9" transform="translate(398,670)"/>
<path d="M0 0 C0.66 0.33 1.32 0.66 2 1 C-0.37050084 3.62002725 -2.87276017 5.35819909 -6 7 C-6.99 7 -7.98 7 -9 7 C-9.28875 7.639375 -9.5775 8.27875 -9.875 8.9375 C-11 11 -11 11 -13 12 C-13.99 11.34 -14.98 10.68 -16 10 C-13.38321437 8.29948946 -10.75537761 6.61689493 -8.125 4.9375 C-7.37863281 4.45216797 -6.63226562 3.96683594 -5.86328125 3.46679688 C-5.14785156 3.01240234 -4.43242188 2.55800781 -3.6953125 2.08984375 C-3.03547363 1.66566162 -2.37563477 1.24147949 -1.69580078 0.80444336 C-1.13618652 0.53897705 -0.57657227 0.27351074 0 0 Z " fill="#7B29DF" transform="translate(604,696)"/>
<path d="M0 0 C0.66 0.33 1.32 0.66 2 1 C1.43152344 1.37511719 0.86304688 1.75023437 0.27734375 2.13671875 C-0.49480469 2.64847656 -1.26695312 3.16023437 -2.0625 3.6875 C-3.29226563 4.49960937 -3.29226563 4.49960937 -4.546875 5.328125 C-6.70171266 6.79670863 -8.75146043 8.34243459 -10.8125 9.9375 C-14 12 -14 12 -16.19921875 11.62890625 C-17.09060547 11.31759766 -17.09060547 11.31759766 -18 11 C-15.04968544 9.13283045 -12.08856877 7.28354701 -9.125 5.4375 C-8.28324219 4.90447266 -7.44148438 4.37144531 -6.57421875 3.82226562 C-5.76855469 3.32275391 -4.96289062 2.82324219 -4.1328125 2.30859375 C-3.01737061 1.60947876 -3.01737061 1.60947876 -1.87939453 0.89624023 C-1.25919434 0.60048096 -0.63899414 0.30472168 0 0 Z " fill="#782AD6" transform="translate(448,565)"/>
<path d="M0 0 C0.66 0.33 1.32 0.66 2 1 C-2.50949221 5.04698018 -7.32957914 8.73183166 -13 11 C-13.99 10.67 -14.98 10.34 -16 10 C-13.38321437 8.29948946 -10.75537761 6.61689493 -8.125 4.9375 C-7.37863281 4.45216797 -6.63226562 3.96683594 -5.86328125 3.46679688 C-5.14785156 3.01240234 -4.43242188 2.55800781 -3.6953125 2.08984375 C-3.03547363 1.66566162 -2.37563477 1.24147949 -1.69580078 0.80444336 C-1.13618652 0.53897705 -0.57657227 0.27351074 0 0 Z " fill="#792BDA" transform="translate(527,667)"/>
<path d="M0 0 C0.66 0.33 1.32 0.66 2 1 C-0.22119356 2.49531331 -2.44638812 3.98373948 -4.6796875 5.4609375 C-6.40175619 6.60318508 -8.11075584 7.76518736 -9.8125 8.9375 C-12.44552268 10.21639673 -13.28942941 9.823968 -16 9 C-13.38029207 7.46935061 -10.75498357 5.95030252 -8.125 4.4375 C-7.37863281 3.99986328 -6.63226563 3.56222656 -5.86328125 3.11132812 C-5.14785156 2.70205078 -4.43242187 2.29277344 -3.6953125 1.87109375 C-3.03547363 1.48880615 -2.37563477 1.10651855 -1.69580078 0.71264648 C-1.13618652 0.47747314 -0.57657227 0.2422998 0 0 Z " fill="#7424D9" transform="translate(360,541)"/>
<path d="M0 0 C1.98 0 3.96 0 6 0 C4.68 0.33 3.36 0.66 2 1 C5.81438599 5.66906555 5.81438599 5.66906555 10 10 C5.65128026 9.49822465 3.04396078 6.97477985 0 4 C0 2.68 0 1.36 0 0 Z " fill="#8337E1" transform="translate(399,468)"/>
<path d="M0 0 C0.66 0.33 1.32 0.66 2 1 C-1.7967324 4.34474045 -5.24194073 7.09677629 -10 9 C-10.99 8.67 -11.98 8.34 -13 8 C-10.880788 6.63594382 -8.75551882 5.28368225 -6.625 3.9375 C-6.02171875 3.54755859 -5.4184375 3.15761719 -4.796875 2.75585938 C-3.23507443 1.77539568 -1.62007786 0.88083925 0 0 Z " fill="#7A2DDA" transform="translate(649,597)"/>
<path d="M0 0 C0.33 0 0.66 0 1 0 C1.86066329 9.67768056 1.86066329 9.67768056 -1.375 13.625 C-4 16 -4 16 -6 16 C-5.25 13.625 -5.25 13.625 -4 11 C-2.68 10.34 -1.36 9.68 0 9 C0 6.03 0 3.06 0 0 Z " fill="#F1DFF9" transform="translate(709,401)"/>
<path d="M0 0 C0.33 0 0.66 0 1 0 C1.09796875 0.66386719 1.1959375 1.32773437 1.296875 2.01171875 C2.20474663 7.37285726 3.02036413 11.02036413 7 15 C5.68 14.67 4.36 14.34 3 14 C3 13.34 3 12.68 3 12 C2.34 12 1.68 12 1 12 C-1.83022097 8.00439392 -0.76210446 4.57262677 0 0 Z " fill="#7F34DB" transform="translate(416,704)"/>
<path d="M0 0 C-1.30567792 3.91703377 -2.80094602 4.31757187 -6.375 6.25 C-7.84066406 7.06210937 -7.84066406 7.06210937 -9.3359375 7.890625 C-12 9 -12 9 -15 8 C-12.8782637 6.66121428 -10.75294812 5.32884524 -8.625 4 C-8.02171875 3.6184375 -7.4184375 3.236875 -6.796875 2.84375 C-2.2265625 0 -2.2265625 0 0 0 Z " fill="#7828D8" transform="translate(498,686)"/>
<path d="M0 0 C0.66 0.33 1.32 0.66 2 1 C-0.16614803 3.30874711 -2.39206608 5.05290181 -5.0625 6.75 C-6.10083984 7.42289063 -6.10083984 7.42289063 -7.16015625 8.109375 C-7.76730469 8.40328125 -8.37445313 8.6971875 -9 9 C-9.66 8.67 -10.32 8.34 -11 8 C-7.71644638 4.32241995 -4.37221763 2.18610882 0 0 Z " fill="#7624DE" transform="translate(424,653)"/>
<path d="M0 0 C0.33 0 0.66 0 1 0 C1.17015625 0.66386719 1.3403125 1.32773437 1.515625 2.01171875 C2.93131569 7.16995346 4.1901501 11.05877597 8 15 C6.68 14.67 5.36 14.34 4 14 C4 13.34 4 12.68 4 12 C3.34 12 2.68 12 2 12 C0.00214565 7.8794254 -0.17835515 4.54805635 0 0 Z " fill="#782EDC" transform="translate(285,480)"/>
<path d="M0 0 C3.3 0 6.6 0 10 0 C10 0.33 10 0.66 10 1 C9.07767578 1.07347656 9.07767578 1.07347656 8.13671875 1.1484375 C7.32847656 1.22320312 6.52023437 1.29796875 5.6875 1.375 C4.48673828 1.47941406 4.48673828 1.47941406 3.26171875 1.5859375 C0.72775559 1.89564426 0.72775559 1.89564426 -2 4 C-1.34 2.68 -0.68 1.36 0 0 Z M-6 4 C-4.68 4 -3.36 4 -2 4 C-2.33 5.32 -2.66 6.64 -3 8 C-3.99 7.34 -4.98 6.68 -6 6 C-6 5.34 -6 4.68 -6 4 Z " fill="#EBD6F9" transform="translate(407,465)"/>
<path d="M0 0 C0.66 0.33 1.32 0.66 2 1 C0.33784732 2.33895632 -1.32963607 3.67130142 -3 5 C-3.680625 5.598125 -4.36125 6.19625 -5.0625 6.8125 C-7 8 -7 8 -9.12109375 7.57421875 C-9.74113281 7.38472656 -10.36117188 7.19523438 -11 7 C-9.21475351 5.80286983 -7.4215972 4.61752721 -5.625 3.4375 C-4.62726563 2.77621094 -3.62953125 2.11492188 -2.6015625 1.43359375 C-1.74304688 0.96050781 -0.88453125 0.48742187 0 0 Z " fill="#7C2ED9" transform="translate(509,678)"/>
<path d="M0 0 C0.99 1.485 0.99 1.485 2 3 C4.23289343 5.95318163 5.89663383 7.93108922 9 10 C8.67 10.66 8.34 11.32 8 12 C1.20805369 7.86577181 1.20805369 7.86577181 0 4 C0 2.68 0 1.36 0 0 Z " fill="#7625DF" transform="translate(317,620)"/>
<path d="M0 0 C1.65 0.33 3.3 0.66 5 1 C2.25576034 3.94751667 -0.36219655 6.22773678 -4 8 C-4.99 7.67 -5.98 7.34 -7 7 C-4.69 5.68 -2.38 4.36 0 3 C0 2.01 0 1.02 0 0 Z " fill="#761FE2" transform="translate(633,569)"/>
<path d="M0 0 C-0.78375 0.61875 -1.5675 1.2375 -2.375 1.875 C-4.96837647 3.89858661 -4.96837647 3.89858661 -7 6 C-7.66 5.67 -8.32 5.34 -9 5 C-8.00233891 2.50584728 -7.31383315 1.21259665 -5.0625 -0.3125 C-3 -1 -3 -1 0 0 Z " fill="#7421E1" transform="translate(686,505)"/>
<path d="M0 0 C0.66 0.33 1.32 0.66 2 1 C-2.75 5 -2.75 5 -5 5 C-5.28875 5.639375 -5.5775 6.27875 -5.875 6.9375 C-7 9 -7 9 -9 10 C-7.63842622 4.70499087 -4.39656045 2.76254467 0 0 Z " fill="#EBD4F9" transform="translate(494,426)"/>
<path d="M0 0 C0.33 0.99 0.66 1.98 1 3 C0.01 4.485 0.01 4.485 -1 6 C-1.66 6 -2.32 6 -3 6 C-3.33 6.99 -3.66 7.98 -4 9 C-5.32 8.67 -6.64 8.34 -8 8 C-6.50260417 6.79557292 -5.00520833 5.59114583 -3.5078125 4.38671875 C-1.74707893 2.87729455 -1.74707893 2.87729455 0 0 Z " fill="#7627DA" transform="translate(450,634)"/>
<path d="M0 0 C0.6875 1.625 0.6875 1.625 1 4 C-0.4375 7.25 -0.4375 7.25 -2 10 C-2.66 8.68 -3.32 7.36 -4 6 C-3.34 5.01 -2.68 4.02 -2 3 C-1.34 3 -0.68 3 0 3 C0 2.01 0 1.02 0 0 Z " fill="#F2E5F8" transform="translate(391,514)"/>
<path d="M0 0 C2.75 -0.25 2.75 -0.25 6 0 C8.375 2 8.375 2 10 4 C6.7 3.34 3.4 2.68 0 2 C0 1.34 0 0.68 0 0 Z " fill="#8133E2" transform="translate(464,478)"/>
<path d="M0 0 C0.598125 0.20625 1.19625 0.4125 1.8125 0.625 C-2.8125 4.625 -2.8125 4.625 -6.1875 4.625 C-5.03076352 1.15479057 -3.91311293 -0.67081936 0 0 Z " fill="#751FE3" transform="translate(536.1875,436.375)"/>
<path d="M0 0 C0.598125 0.20625 1.19625 0.4125 1.8125 0.625 C-0.58259338 3.52432357 -2.49995243 4.12668276 -6.1875 4.625 C-5.03076352 1.15479057 -3.91311293 -0.67081936 0 0 Z " fill="#7723E6" transform="translate(442.1875,345.375)"/>
<path d="M0 0 C0.66 0.33 1.32 0.66 2 1 C0.68 2.65 -0.64 4.3 -2 6 C-3.32 5.34 -4.64 4.68 -6 4 C-4.02 2.68 -2.04 1.36 0 0 Z " fill="#F0DBF9" transform="translate(443,685)"/>
<path d="M0 0 C0.99 0.33 1.98 0.66 3 1 C1.68 2.65 0.36 4.3 -1 6 C-1.66 5.67 -2.32 5.34 -3 5 C-2.01 3.35 -1.02 1.7 0 0 Z " fill="#7924E8" transform="translate(583,482)"/>
<path d="M0 0 C0.66 1.32 1.32 2.64 2 4 C1.01 4.99 0.02 5.98 -1 7 C-1.66 6.34 -2.32 5.68 -3 5 C-2.01 3.35 -1.02 1.7 0 0 Z " fill="#F4EAF6" transform="translate(586,473)"/>
</svg>
